<?xml version="1.0" standalone="no"?><!DOCTYPE svg PUBLIC "-//W3C//DTD SVG 1.1//EN" "http://www.w3.org/Graphics/SVG/1.1/DTD/svg11.dtd"><svg t="1563438998854" class="icon" viewBox="0 0 1024 1024" version="1.1" xmlns="http://www.w3.org/2000/svg" p-id="1681" xmlns:xlink="http://www.w3.org/1999/xlink" width="128" height="128"><defs><style type="text/css"></style></defs><path d="M873.77802734 890.48867188H669.50703125c-17.93056641 0-32.51953125-14.58896484-32.51953125-32.51953126V150.21669922c0-17.93144531 14.58896484-32.51953125 32.51953125-32.51953125h204.27011719c17.93056641 0 32.51953125 14.58808594 32.51953125 32.51953125v707.7524414c0.00087891 8.68359375-3.38115234 16.85126953-9.52382813 22.99394532-6.14179687 6.14267578-14.30859375 9.52558594-22.99482422 9.52558593z m-192.84521484-43.94531251h181.41943359l-0.0008789-684.9008789H680.9328125v684.9008789zM323.12480469 889.6203125a31.40332031 31.40332031 0 0 1-13.23017578-2.90390625l-170.13691407-78.34570313c-7.67724609-3.53496094-13.51845703-9.84902344-16.44785156-17.77763671-2.92939453-7.92861328-2.59453125-16.52431641 0.9413086-24.2015625l271.4484375-589.48945313c5.15039063-11.18408203 16.43466797-18.41044922 28.74814453-18.41044922a31.41738281 31.41738281 0 0 1 13.23017578 2.90390625l170.13779297 78.34570313c7.67724609 3.53496094 13.51845703 9.84902344 16.44785156 17.77763672 2.92851562 7.92861328 2.59453125 16.5234375-0.94042969 24.20068359l-271.45019531 589.49121094c-5.15039063 11.18408203-16.43466797 18.40957031-28.74814453 18.40957031zM169.31269531 773.60117187l147.78984375 68.05458985 261.15820313-567.14238281-147.78984375-68.05546875-261.15820313 567.14326172z" fill="#949494" p-id="1682"></path><path d="M873.99951172 890.42890625H669.72851563c-17.93056641 0-32.51953125-14.58896484-32.51953126-32.51953125V150.15693359c0-12.13505859 9.83671875-21.97265625 21.97265625-21.97265625s21.97265625 9.83759766 21.97265625 21.97265625v696.32666016h192.84521485c12.1359375 0 21.97265625 9.83671875 21.97265625 21.97265625s-9.83671875 21.97265625-21.97265625 21.97265625z" fill="#949494" p-id="1683"></path><path d="M883.43984375 729.96787109H660.00605469c-12.13505859 0-21.97265625-9.83759766-21.97265625-21.97265625s9.83759766-21.97265625 21.97265625-21.97265625h223.43378906c12.1359375 0 21.97265625 9.83759766 21.97265625 21.97265625s-9.83671875 21.97265625-21.97265625 21.97265625zM318.61162109 888.40214844c-3.07617188 0-6.19980469-0.64863281-9.17666015-2.01972656l-170.13779297-78.34570313c-15.8484375-7.29931641-22.80410156-26.12988281-15.50654297-41.97832031l271.44931641-589.49033203c5.07568359-11.02324219 18.12480469-15.84404297 29.14892578-10.76748047 11.02324219 5.07568359 15.84316406 18.1265625 10.76748047 29.14892578L168.85214844 773.26630859l158.9633789 73.19970703c11.02324219 5.07480469 15.84404297 18.12568359 10.76748047 29.14892579-3.70371094 8.04462891-11.65869141 12.78720703-19.97138672 12.78720703z" fill="#949494" p-id="1684"></path><path d="M389.73886719 761.74033203c-3.07617188 0-6.19980469-0.64863281-9.17666016-2.01972656l-170.13779297-78.34570313c-11.02324219-5.07568359-15.84404297-18.12568359-10.76748047-29.14892578 5.07568359-11.02236328 18.12480469-15.84228516 29.14892578-10.76748047l170.13779297 78.34570313c11.02324219 5.07568359 15.84404297 18.12568359 10.76748047 29.14892578-3.70546875 8.04638672-11.65957031 12.78720703-19.97226562 12.78720703z" fill="#949494" p-id="1685"></path></svg>