<?xml version="1.0" standalone="no"?><!DOCTYPE svg PUBLIC "-//W3C//DTD SVG 1.1//EN" "http://www.w3.org/Graphics/SVG/1.1/DTD/svg11.dtd"><svg t="1563439071871" class="icon" viewBox="0 0 1024 1024" version="1.1" xmlns="http://www.w3.org/2000/svg" p-id="2576" xmlns:xlink="http://www.w3.org/1999/xlink" width="128" height="128"><defs><style type="text/css"></style></defs><path d="M512 278.5625c-42.9375 0-77.8125 34.875-77.8125 77.8125s34.875 77.8125 77.8125 77.8125 77.8125-34.875 77.8125-77.8125-34.875-77.8125-77.8125-77.8125z m0 116.71875c-21.46875 0-38.90625-17.4375-38.90625-38.90625s17.4375-38.90625 38.90625-38.90625 38.90625 17.4375 38.90625 38.90625-17.4375 38.90625-38.90625 38.90625zM512 745.4375c42.9375 0 77.8125-34.875 77.8125-77.8125s-34.875-77.8125-77.8125-77.8125-77.8125 34.875-77.8125 77.8125 34.875 77.8125 77.8125 77.8125z m0-116.71875c21.46875 0 38.90625 17.4375 38.90625 38.90625s-17.4375 38.90625-38.90625 38.90625-38.90625-17.4375-38.90625-38.90625 17.4375-38.90625 38.90625-38.90625zM356.375 443.9375c-42.9375 0-77.8125 34.875-77.8125 77.8125s34.875 77.8125 77.8125 77.8125 77.8125-34.875 77.8125-77.8125c0-43.03125-34.875-77.8125-77.8125-77.8125z m0 116.71875c-21.46875 0-38.90625-17.4375-38.90625-38.90625s17.4375-38.90625 38.90625-38.90625 38.90625 17.4375 38.90625 38.90625-17.4375 38.90625-38.90625 38.90625zM667.625 599.5625c42.9375 0 77.8125-34.875 77.8125-77.8125s-34.875-77.8125-77.8125-77.8125-77.8125 34.875-77.8125 77.8125 34.875 77.8125 77.8125 77.8125z m0-116.71875c21.46875 0 38.90625 17.4375 38.90625 38.90625s-17.4375 38.90625-38.90625 38.90625-38.90625-17.4375-38.90625-38.90625 17.4375-38.90625 38.90625-38.90625z" fill="#009a61" p-id="2577"></path><path d="M881.65625 862.15625H512c-206.25 0-371.4375-179.25-347.90625-390.1875C182 311.5625 311.5625 182 471.96875 164.09375 682.90625 140.5625 862.15625 305.75 862.15625 512c0 109.125-50.4375 206.53125-129 270.84375-4.5 3.65625-7.21875 9.09375-7.21875 14.90625v0.5625c0 16.21875 18.9375 25.59375 31.5 15.375C845.09375 742.34375 901.0625 633.78125 901.0625 512c0-221.8125-185.625-400.3125-409.96875-388.5-196.40625 10.3125-357.28125 171.1875-367.59375 367.59375C111.6875 715.4375 290.1875 901.0625 512 901.0625h369.65625c10.6875 0 19.5-8.71875 19.5-19.5-0.09375-10.6875-8.8125-19.40625-19.5-19.40625z" fill="#009a61" p-id="2578"></path><path d="M512 512m-19.5 0a19.5 19.5 0 1 0 39 0 19.5 19.5 0 1 0-39 0Z" fill="#009a61" p-id="2579"></path></svg>