<?xml version="1.0" standalone="no"?><!DOCTYPE svg PUBLIC "-//W3C//DTD SVG 1.1//EN" "http://www.w3.org/Graphics/SVG/1.1/DTD/svg11.dtd"><svg t="1563439030943" class="icon" viewBox="0 0 1024 1024" version="1.1" xmlns="http://www.w3.org/2000/svg" p-id="2075" xmlns:xlink="http://www.w3.org/1999/xlink" width="128" height="128"><defs><style type="text/css"></style></defs><path d="M512 125.28125027C297.54687473 125.28125027 125.28125027 297.54687473 125.28125027 512s172.26562527 386.71874973 386.71874973 386.71874973 386.71874973-172.26562527 386.71874973-386.71874973S726.45312527 125.28125027 512 125.28125027zM512 863.56250027C318.64062473 863.56250027 160.43749973 705.35937527 160.43749973 512S318.64062473 160.43749973 512 160.43749973s351.56250027 158.203125 351.56250027 351.56250027S705.35937527 863.56250027 512 863.56250027zM670.203125 283.48437527c-1.75781223 0-1.75781223 0-1.75781223 0l0 0-131.8359375-15.8203125C534.85156223 265.90624973 531.33593777 265.90624973 529.57812473 265.90624973c0 0-1.75781223 0-1.75781223 0l-1.75781223 0 0 0c-8.78906277 1.75781223-15.8203125 8.78906277-15.8203125 17.57812473l0 316.40625c-14.06250027-10.546875-33.39843723-17.57812473-52.734375-17.57812473l-35.15625027 0c-49.21874973 0-87.89062527 38.67187473-87.89062527 87.89062527s38.67187473 87.89062527 87.89062527 87.89062527l35.15625027 0c49.21874973 0 87.89062527-38.67187473 87.89062528-87.89062527L545.39843723 408.28906223l116.015625 14.06250027C664.9296875 424.10937473 668.44531277 424.10937473 670.203125 424.10937473c0 0 1.75781223 0 1.75781223 0l1.75781222 0 0 0c8.78906277-1.75781223 15.8203125-8.78906277 15.82031251-17.57812473l-1e-8-105.46875C687.78124973 290.515625 680.75 283.48437527 670.203125 283.48437527zM459.265625 722.9375l-35.15625027 0c-29.88281277 0-52.734375-22.85156223-52.734375-52.734375s22.85156223-52.734375 52.734375-52.734375l35.15625027 0c29.88281277 0 52.734375 22.85156223 52.734375 52.734375S489.14843777 722.9375 459.265625 722.9375zM652.62500027 387.19531223l-105.46875-14.06250028 0-72.07031277 105.46875 14.06250028L652.62500027 387.19531223z" fill="#009a61" p-id="2076"></path></svg>